<svg version="1.2" xmlns="http://www.w3.org/2000/svg" viewBox="0 0 450 376" width="450" height="376">
	<title>Lottie - Hero cup-svg</title>
	<defs>
		<clipPath clipPathUnits="userSpaceOnUse" id="cp1">
			<path d="m-26-235h521v624h-521z"/>
		</clipPath>
		<linearGradient id="g1" x2="1" gradientUnits="userSpaceOnUse" gradientTransform="matrix(55.04,-202.354,202.352,55.039,78.581,301.1)">
			<stop offset="0" stop-color="#f40080"/>
			<stop offset="1" stop-color="#301222"/>
		</linearGradient>
		<linearGradient id="g2" x2="1" gradientUnits="userSpaceOnUse" gradientTransform="matrix(23.947,-39.2,54.543,33.321,185.823,349.218)">
			<stop offset="0" stop-color="#f40080"/>
			<stop offset="1" stop-color="#301222"/>
		</linearGradient>
		<linearGradient id="g3" x2="1" gradientUnits="userSpaceOnUse" gradientTransform="matrix(221.881,-220.136,227.367,229.169,119.324,310.846)">
			<stop offset="0" stop-color="#f40080"/>
			<stop offset="1" stop-color="#301222"/>
		</linearGradient>
		<linearGradient id="g4" x2="1" gradientUnits="userSpaceOnUse" gradientTransform="matrix(4.159,-118.555,191.362,6.714,344.113,143.94)">
			<stop offset="0" stop-color="#f40080"/>
			<stop offset="1" stop-color="#210011"/>
		</linearGradient>
		<linearGradient id="g5" x2="1" gradientUnits="userSpaceOnUse" gradientTransform="matrix(112.817,-114.042,114.73,113.497,8.385,349.898)">
			<stop offset="0" stop-color="#f40080"/>
			<stop offset="1" stop-color="#301222"/>
		</linearGradient>
	</defs>
	<style>
		.s0 { fill: url(#g1) } 
		.s1 { fill: url(#g2) } 
		.s2 { fill: url(#g3) } 
		.s3 { opacity: .5;fill: #000000 } 
		.s4 { fill: #b4005e } 
		.s5 { fill: url(#g4) } 
		.s6 { fill: #f40080 } 
		.s7 { fill: #58002e } 
		.s8 { fill: #7c0041 } 
		.s9 { fill: url(#g5) } 
		.s10 { fill: none;stroke: #f40080;stroke-linejoin: round;stroke-width: .4 } 
	</style>
	<g id="Clip-Path" clip-path="url(#cp1)">
		<g id="Layer">
			<g id="Layer">
				<path id="Layer" fill-rule="evenodd" class="s0" d="m162.7 264.5c-39 35.1-99 32-134.1-7-35.1-38.9-32-98.9 7-134 38.9-35.1 98.9-32 134 6.9 35.1 39 32 99-6.9 134.1zm-25.4-104.9c-19-21.1-51.5-22.8-72.6-3.8-21 19-22.7 51.5-3.7 72.6 19 21.1 51.5 22.7 72.5 3.7 21.1-18.9 22.8-51.4 3.8-72.5z"/>
			</g>
			<g id="Layer">
				<path id="Layer" class="s1" d="m355.8 332.9c-14.8-45.4-40.6-69-98-74.2-57.4-5.3-93.8 20.3-109.8 55.1-1.9 20 38.1 52.5 95.5 57.8 57.4 5.3 110.5-19.5 112.3-38.7z"/>
			</g>
			<g id="Layer">
				<path id="Layer" class="s2" d="m92.6 91.8c-14.4 155.7 57.5 241.7 156.6 250.8 99 9.1 190.6-67.6 196.6-218.2 1.4-34.6-74.1-74.9-173.1-84-99.1-9.1-177.1 18.4-180.1 51.4z"/>
			</g>
			<path id="Layer" class="s3" d="m105.7 99.8c-2.7 29.6 67.6 60.3 157.1 68.5 89.4 8.2 164.1-9.1 166.9-38.7 2.7-29.5-67.6-60.2-157.1-68.4-89.4-8.3-164.1 9-166.9 38.6z"/>
			<g id="Layer">
				<path id="Layer" class="s4" d="m176.7 122.7c-29.1 1.9-54.8 37.1-59.2 47.3 4 94.1 70.7 136.9 134.8 142.8 78.9 7.2 158.2-55.1 162.4-159.5 1.1-27.6-45-7.9-124-15.1-78.9-7.3-76.4-17.9-114-15.5z"/>
			</g>
			<g id="Layer">
				<path id="Layer" fill-rule="evenodd" class="s5" d="m413.8 150.5c2-17.9-19-60-2.7-104.1 20.4-55.1-42.4-62-83.6 6.4-41.2 68.4-110.4 21.7-184.3 86 92.3 37.9 220.3 35.3 270.6 11.7z"/>
			</g>
			<path id="Layer" class="s6" d="m386.1 18.4c-17.2 0.3-35.9 20.2-34.7 17.3 3.1-7.7 23.1-22.9 35.7-24.4 12.5-1.5 16.3 6.7-1 7.1z"/>
			<path id="Layer" fill-rule="evenodd" class="s7" d="m104.3 245.6c-0.5-0.6-0.5-1.4 0.1-1.9 23-20.8 43.9-44.4 45.2-81.3 0.4-11.4 6.6-19.4 15-23.1 8.4-3.7 18.9-3 28 2.8l-1.5 2.3c-8.3-5.3-17.8-5.9-25.4-2.6-7.4 3.3-13 10.4-13.4 20.7-1.2 38-22.9 62.4-46.1 83.2-0.5 0.5-1.4 0.5-1.9-0.1zm46.7-83.1h1.3z"/>
			<g id="Layer">
				<path id="Layer" class="s8" d="m339.5 233.2c6.6-8.8-7.2-18.6-13.4-8.8-6.1 9.9 6.8 17.7 13.4 8.8z"/>
			</g>
			<g id="Layer">
				<path id="Layer" class="s8" d="m207.2 224.1c6.6-8.9-7.2-18.7-13.4-8.8-6.2 9.8 6.7 17.6 13.4 8.8z"/>
			</g>
			<g id="Layer">
				<path id="Layer" class="s8" d="m265.9 224.6c-3.5-5.9-12.5 0.1-8.3 5.9 4.2 5.9 11.9 0 8.3-5.9z"/>
			</g>
			<g id="Layer">
				<path id="Layer" class="s8" d="m195.1 181.6c-3.6-5.9-12.5 0.1-8.3 5.9 4.2 5.9 11.8 0 8.3-5.9z"/>
			</g>
			<g id="Layer">
				<path id="Layer" class="s8" d="m175.8 239.9c-3.5-5.9-12.5 0.1-8.3 5.9 4.2 5.9 11.9 0 8.3-5.9z"/>
			</g>
			<g id="Layer">
				<path id="Layer" class="s8" d="m250.9 270.9c-3.5-5.9-12.5 0.1-8.3 5.9 4.2 5.9 11.9 0 8.3-5.9z"/>
			</g>
			<g id="Layer">
				<path id="Layer" class="s8" d="m363.9 184.2c-3.5-5.9-12.5 0.1-8.3 5.9 4.2 5.9 11.9 0 8.3-5.9z"/>
			</g>
			<g id="Layer">
				<path id="Layer" class="s9" d="m84.3 218.1l48.5 23.2c7.6 3.6 10.8 12.7 7.2 20.2l-22.8 47.7c-3.6 7.6-12.7 10.8-20.3 7.2l-48.5-23.2c-7.6-3.6-10.8-12.7-7.2-20.3l22.8-47.6c3.6-7.6 12.7-10.8 20.3-7.2z"/>
			</g>
			<path id="Layer" class="s10" d="m84.9 225.1l43.3 20.7c5.8 2.7 8.3 9.7 5.5 15.5l-20.7 43.3c-2.7 5.8-9.7 8.2-15.5 5.4l-43.3-20.6c-5.8-2.8-8.2-9.7-5.5-15.5l20.7-43.3c2.8-5.8 9.7-8.3 15.5-5.5z"/>
			<g id="Layer">
				<path id="Layer" fill-rule="evenodd" class="s6" d="m112.9 276.2c-2 2-6 4-6 4l1.5-2.9-5.6-2.8-3.7 7.5-3.9 0.1 8.8-17.5 12.3 6.3c0 0-1.7 3.5-3.4 5.3zm-3.3-1.2l1.4-3-5.5-2.8-1.5 3z"/>
				<path id="Layer" fill-rule="evenodd" class="s6" d="m101.5 263.5l-17.4-8.7 0.1 3.8 12.7 6.5-2.5 4.9-11.1-5.5 0.7 2.5c0.3 1.2 1.1 2.2 2.3 2.8l6.5 3.3-1.8 3.7-4.1-2.1-1.6 3.1 7.2 3.6z"/>
				<path id="Layer" fill-rule="evenodd" class="s6" d="m81.7 284.2c-5.6-4.4-8.4-10.9-9.3-15.7l2.3-0.4c0.8 4.3 3.4 10.3 8.4 14.2 5 3.8 12.4 5.7 23.3 1.7l0.8 2.2c-11.5 4.3-19.9 2.4-25.5-2z"/>
				<path id="Layer" fill-rule="evenodd" class="s6" d="m82.6 247.9c-2-0.9-4.3-1.2-6.4-0.6-2.1 0.7-3.9 2.3-5 4.7-0.7 1.8-0.7 4-0.1 5.9 0.5 1.7 1.7 3.8 4 4.3l0.8-3.8c-0.2-0.1-0.8-0.4-1.1-1.7-0.4-1.1-0.3-2.4 0-3.2 0.6-1.5 1.6-2.2 2.6-2.5 0.6-0.2 1.4-0.2 2.1-0.1-1.2 2.6-2.3 6.1-2.5 9.9-0.3 5 0.4 10.2 6.9 15.9l1.5-2.9c-4-4-5.2-8.7-5-12.9 0.2-3.5 1.3-6.6 2.4-8.8l34.2 17.2 1.6-3.2-35.9-18.1q0 0 0 0l-0.1-0.1q0 0 0 0z"/>
			</g>
		</g>
	</g>
</svg>