<svg version="1.2" xmlns="http://www.w3.org/2000/svg" viewBox="0 0 453 346" width="453" height="346">
	<title>tea-cup-svg</title>
	<defs>
		<linearGradient id="g1" x2="1" gradientUnits="userSpaceOnUse" gradientTransform="matrix(-61.709,-200.467,200.466,-61.709,141.676,269.413)">
			<stop offset="0" stop-color="#f40080"/>
			<stop offset="1" stop-color="#301222"/>
		</linearGradient>
		<linearGradient id="g2" x2="1" gradientUnits="userSpaceOnUse" gradientTransform="matrix(-0.928,-58.736,107.29,-1.695,228.76,356.919)">
			<stop offset="0" stop-color="#f40080"/>
			<stop offset="1" stop-color="#301222"/>
		</linearGradient>
		<linearGradient id="g3" x2="1" gradientUnits="userSpaceOnUse" gradientTransform="matrix(77.591,-338.777,395.631,90.612,208.642,334.498)">
			<stop offset="0" stop-color="#f40080"/>
			<stop offset="1" stop-color="#301222"/>
		</linearGradient>
		<linearGradient id="g4" x2="1" gradientUnits="userSpaceOnUse" gradientTransform="matrix(35.5,-161.937,163.27,35.793,70.244,358.945)">
			<stop offset="0" stop-color="#f40080"/>
			<stop offset="1" stop-color="#301222"/>
		</linearGradient>
	</defs>
	<style>
		.s0 { fill: url(#g1) } 
		.s1 { fill: url(#g2) } 
		.s2 { fill: url(#g3) } 
		.s3 { fill: #b4005e } 
		.s4 { opacity: .5;fill: #000000 } 
		.s5 { fill: #58002e } 
		.s6 { fill: #7c0041 } 
		.s7 { fill: url(#g4) } 
		.s8 { fill: none;stroke: #f40080;stroke-linejoin: round;stroke-width: .4 } 
		.s9 { fill: #f40080 } 
	</style>
	<g id="Layer">
		<g id="Layer">
			<path id="Layer" fill-rule="evenodd" class="s0" d="m168.1 235.8c-37.5 36.6-97.6 35.9-134.2-1.6-36.7-37.4-36-97.5 1.5-134.2 37.5-36.6 97.6-35.9 134.2 1.5 36.7 37.5 36 97.6-1.5 134.3zm-29.6-103.8c-19.8-20.3-52.4-20.7-72.7-0.8-20.2 19.8-20.6 52.3-0.8 72.6 19.9 20.3 52.4 20.7 72.7 0.8 20.3-19.8 20.6-52.3 0.8-72.6z"/>
		</g>
		<g id="Layer">
			<path id="Layer" class="s1" d="m363.8 296.3c-16.6-44.8-43.3-67.3-100.9-70.2-57.5-3-92.9 24.1-107.5 59.5-1 20.1 40.3 51 97.8 53.9 57.6 3 109.6-24 110.6-43.2z"/>
		</g>
		<g id="Layer">
			<path id="Layer" class="s2" d="m91.1 66.1c-8 156.1 67.3 239.1 166.6 244.2 99.3 5.1 187.7-75.3 187.6-226 0-34.6-77-71.8-176.4-76.9-99.3-5.1-176.1 25.6-177.8 58.7z"/>
		</g>
		<g id="Layer">
			<path id="Layer" class="s3" d="m168.6 66.1c-31.4 3.9-57.5 45.7-61.8 57.6 8.9 107.7 83.3 152.9 153 156 85.9 3.8 169.3-72.5 169.6-190.9-1.3-31.7-50.6-7.7-136.5-11.5-85.8-3.8-83.6-16.2-124.3-11.2z"/>
		</g>
		<path id="Layer" class="s4" d="m104.5 73.5c-1.5 29.7 70 57.5 159.7 62.1 89.7 4.6 163.7-15.7 165.2-45.4 1.5-29.7-70-57.5-159.7-62.1-89.7-4.6-163.6 15.7-165.2 45.4z"/>
		<path id="Layer" fill-rule="evenodd" class="s5" d="m109 219.3c-0.5-0.6-0.5-1.5 0-2 22.2-21.7 42.1-46.1 41.9-83-0.1-11.4 5.8-19.7 14.1-23.7 8.2-4 18.8-3.8 28 1.6l-1.4 2.4c-8.5-5-18-5.1-25.4-1.5-7.3 3.5-12.6 10.9-12.6 21.2 0.3 38-20.3 63.2-42.6 85-0.6 0.5-1.5 0.5-2 0zm43.3-85h1.3z"/>
		<g id="Layer">
			<path id="Layer" class="s6" d="m343.5 197.4c6.3-9.2-7.9-18.4-13.7-8.3-5.8 10.1 7.5 17.4 13.7 8.3z"/>
		</g>
		<g id="Layer">
			<path id="Layer" class="s6" d="m210.9 193.6c6.3-9.1-7.9-18.4-13.7-8.3-5.8 10.1 7.5 17.4 13.7 8.3z"/>
		</g>
		<g id="Layer">
			<path id="Layer" class="s6" d="m269.7 191.7c-3.8-5.8-12.5 0.6-8.1 6.3 4.4 5.6 11.8-0.6 8.1-6.3z"/>
		</g>
		<g id="Layer">
			<path id="Layer" class="s6" d="m197.1 151.6c-3.7-5.7-12.5 0.6-8 6.3 4.4 5.7 11.8-0.6 8-6.3z"/>
		</g>
		<g id="Layer">
			<path id="Layer" class="s6" d="m180.3 210.6c-3.8-5.7-12.5 0.6-8.1 6.3 4.4 5.7 11.8-0.5 8.1-6.3z"/>
		</g>
		<g id="Layer">
			<path id="Layer" class="s6" d="m256.6 238.6c-3.8-5.8-12.5 0.6-8.1 6.3 4.4 5.6 11.8-0.6 8.1-6.3z"/>
		</g>
		<g id="Layer">
			<path id="Layer" class="s6" d="m366 147.4c-3.8-5.8-12.5 0.6-8.1 6.2 4.4 5.7 11.8-0.5 8.1-6.2z"/>
		</g>
		<g id="Layer">
			<path id="Layer" class="s7" d="m87.9 192.6l49.4 21.2c7.7 3.3 11.3 12.2 8 19.9l-20.8 48.6c-3.3 7.7-12.3 11.3-20 8l-49.4-21.2c-7.7-3.3-11.3-12.3-8-20l20.8-48.5c3.3-7.8 12.3-11.3 20-8z"/>
		</g>
		<path id="Layer" class="s8" d="m88.8 199.5l44.1 18.9c5.9 2.6 8.7 9.4 6.1 15.3l-18.9 44.1c-2.5 5.9-9.3 8.6-15.2 6.1l-44.1-18.9c-5.9-2.5-8.7-9.4-6.2-15.3l18.9-44c2.6-6 9.4-8.7 15.3-6.2z"/>
		<g id="Layer">
			<path id="Layer" fill-rule="evenodd" class="s9" d="m118.8 249.5c-1.8 2.1-5.8 4.2-5.8 4.2l1.4-2.9-5.7-2.6-3.4 7.6-3.9 0.3 8.1-17.8 12.6 5.7c0 0-1.6 3.6-3.3 5.5zm-3.3-1.1l1.3-3-5.6-2.6-1.4 3z"/>
			<path id="Layer" fill-rule="evenodd" class="s9" d="m107 237.3l-17.8-8.1 0.2 3.9 13 5.9-2.3 5.1-11.3-5.2 0.8 2.5c0.3 1.2 1.2 2.2 2.4 2.7l6.7 3.1-1.7 3.8-4.2-2-1.4 3.2 7.3 3.3z"/>
			<path id="Layer" fill-rule="evenodd" class="s9" d="m88 258.7c-5.8-4.1-8.8-10.5-9.9-15.2l2.3-0.6c1 4.3 3.8 10.2 9 13.9 5 3.6 12.5 5.2 23.3 0.7l0.9 2.2c-11.4 4.8-19.8 3.2-25.6-1z"/>
			<path id="Layer" fill-rule="evenodd" class="s9" d="m87.4 222.5c-2-0.9-4.3-1.1-6.3-0.4-2.2 0.7-3.9 2.4-4.9 4.9-0.6 1.8-0.5 4.1 0.1 5.9 0.6 1.7 1.9 3.7 4.2 4.1l0.7-3.8c-0.3-0.1-0.8-0.4-1.3-1.6-0.3-1.1-0.4-2.4 0-3.2 0.5-1.5 1.4-2.3 2.4-2.7 0.7-0.2 1.4-0.2 2.2-0.1-1.2 2.6-2.1 6.1-2.2 9.9 0 5 0.9 10.2 7.6 15.7l1.4-3c-4.2-3.9-5.6-8.4-5.5-12.7 0-3.5 1-6.7 2-8.9l34.9 15.8 1.5-3.2-36.6-16.7q-0.1 0-0.1 0h-0.1q0 0 0 0z"/>
		</g>
	</g>
</svg>