<svg width="1017" height="477" viewBox="0 0 1017 477" fill="none" xmlns="http://www.w3.org/2000/svg">
<g clip-path="url(#clip0_65_1772)">
<path fill-rule="evenodd" clip-rule="evenodd" d="M230.179 211.068L276.766 211.067C276.766 211.067 276.969 224.41 274.507 232.429C271.738 241.445 262.617 253.45 262.617 253.45V222.601H241.712V270.712L230.179 276.999L230.179 211.068Z" fill="#FF00A4"/>
<path d="M238.851 238.171H264.667" stroke="#FF00A4" stroke-width="9"/>
<path fill-rule="evenodd" clip-rule="evenodd" d="M141.311 193.374H273.734C276.919 193.374 279.5 195.956 279.5 199.141V199.141C279.5 202.326 276.919 204.908 273.734 204.908H141.396C136.742 204.981 129.87 206.043 124.4 208.762C119.045 211.424 115.984 215.076 116.042 220.401C116.112 226.811 119.112 232.019 123.267 236.115C126.462 239.264 129.805 241.716 132.63 243.205C134.185 244.024 135.525 245.27 136.167 246.905V246.905C137.888 251.294 134.113 255.801 129.734 254.057C123.391 251.53 118.971 248.075 115.171 244.329C109.523 238.761 104.621 230.812 104.509 220.526C104.386 209.156 111.647 202.222 119.266 198.434C126.756 194.711 135.49 193.458 141.269 193.375L141.311 193.374Z" fill="#FF00A4"/>
<path fill-rule="evenodd" clip-rule="evenodd" d="M143.15 240.412C136.354 225.151 135.225 209.22 136.298 198.992L147.768 200.195C146.874 208.72 147.832 222.574 153.686 235.721C159.462 248.693 169.943 260.898 188.295 266.932V277.889C159.963 270.411 150.024 255.849 143.15 240.412Z" fill="#FF00A4"/>
<path fill-rule="evenodd" clip-rule="evenodd" d="M155.459 211.562H221.07V278.899H193.98V267.365H209.537V223.095H161.542L155.459 211.562Z" fill="#FF00A4"/>
<path fill-rule="evenodd" clip-rule="evenodd" d="M167.707 241.928H213.283V253.461H184.717C180.442 253.461 176.37 251.637 173.524 248.448L167.707 241.928Z" fill="#FF00A4"/>
<path fill-rule="evenodd" clip-rule="evenodd" d="M192.771 303.687C171.267 299.491 153.937 285.991 143.606 273.834C142.178 272.154 142.515 269.645 144.263 268.301V268.301C146.011 266.958 148.509 267.29 149.945 268.963C159.446 280.034 175.187 292.121 194.301 295.85C214.162 299.726 238.403 294.723 264.007 268.488C265.547 266.91 268.072 266.804 269.691 268.301V268.301C271.309 269.799 271.41 272.331 269.872 273.911C242.613 301.913 215.697 308.161 192.771 303.687Z" fill="#FF00A4"/>
<path d="M356.48 287C354.52 287 353.05 286.51 352.07 285.53C351.09 284.55 350.6 283.08 350.6 281.12V203.98H323.44C321.48 203.98 320.01 203.49 319.03 202.51C318.05 201.53 317.56 200.06 317.56 198.1C317.56 196.14 318.05 194.67 319.03 193.69C320.01 192.71 321.48 192.22 323.44 192.22H389.52C391.48 192.22 392.95 192.71 393.93 193.69C394.91 194.67 395.4 196.14 395.4 198.1C395.4 200.06 394.91 201.53 393.93 202.51C392.95 203.49 391.48 203.98 389.52 203.98H362.36V281.12C362.36 282.987 361.847 284.433 360.82 285.46C359.84 286.487 358.393 287 356.48 287ZM407.007 256.34V259.7C407.007 265.72 408.104 269.827 410.297 272.02C412.49 274.167 416.62 275.24 422.687 275.24H434.167C438.927 275.24 442.45 274.797 444.737 273.91C447.024 273.023 448.54 271.46 449.287 269.22C449.8 267.447 450.5 266.093 451.387 265.16C452.32 264.227 453.72 263.76 455.587 263.76C457.547 263.76 459.04 264.273 460.067 265.3C461.094 266.327 461.42 267.82 461.047 269.78C460.02 275.567 457.267 279.883 452.787 282.73C448.307 285.577 442.1 287 434.167 287H422.687C413.4 287 406.494 284.76 401.967 280.28C397.487 275.8 395.247 268.94 395.247 259.7V243.46C395.247 233.987 397.487 227.033 401.967 222.6C406.494 218.12 413.4 215.927 422.687 216.02H434.167C443.5 216.02 450.407 218.26 454.887 222.74C459.367 227.173 461.607 234.08 461.607 243.46V250.46C461.607 254.38 459.647 256.34 455.727 256.34H407.007ZM422.687 227.78C416.62 227.687 412.49 228.737 410.297 230.93C408.104 233.123 407.007 237.3 407.007 243.46V244.58H449.847V243.46C449.847 237.347 448.75 233.217 446.557 231.07C444.41 228.877 440.28 227.78 434.167 227.78H422.687ZM509.177 287C501.337 287 495.504 285.087 491.677 281.26C487.851 277.433 485.937 271.6 485.937 263.76C485.937 255.92 487.827 250.087 491.607 246.26C495.434 242.433 501.291 240.52 509.177 240.52H538.787C538.507 235.62 537.224 232.283 534.937 230.51C532.651 228.69 528.731 227.78 523.177 227.78H515.057C510.391 227.78 506.914 228.107 504.627 228.76C502.341 229.367 500.731 230.487 499.797 232.12C498.957 234.08 498.094 235.433 497.207 236.18C496.321 236.927 494.991 237.3 493.217 237.3C491.257 237.3 489.717 236.763 488.597 235.69C487.477 234.57 487.151 233.1 487.617 231.28C489.017 226.007 491.934 222.157 496.367 219.73C500.847 217.257 507.077 216.02 515.057 216.02H523.177C532.511 216.02 539.417 218.26 543.897 222.74C548.377 227.22 550.617 234.127 550.617 243.46V281.12C550.617 285.04 548.657 287 544.737 287C540.817 287 538.857 285.04 538.857 281.12V277.97C533.864 283.99 526.584 287 517.017 287H509.177ZM509.177 275.24H517.017C520.471 275.24 523.714 274.937 526.747 274.33C529.781 273.677 532.371 272.51 534.517 270.83C536.711 269.15 538.157 266.747 538.857 263.62V252.28H509.177C504.557 252.28 501.477 253.05 499.937 254.59C498.444 256.13 497.697 259.187 497.697 263.76C497.697 268.38 498.444 271.46 499.937 273C501.477 274.493 504.557 275.24 509.177 275.24ZM599.392 286.86C590.945 286.86 584.762 284.923 580.842 281.05C576.969 277.177 575.032 271.04 575.032 262.64C575.032 261.8 575.312 261.1 575.872 260.54C576.432 259.98 577.132 259.7 577.972 259.7C578.812 259.7 579.512 259.98 580.072 260.54C580.632 261.1 580.912 261.8 580.912 262.64C580.912 269.407 582.265 274.167 584.972 276.92C587.725 279.627 592.532 280.98 599.392 280.98H619.552C626.412 280.98 631.195 279.627 633.902 276.92C636.655 274.167 638.032 269.407 638.032 262.64C638.032 255.827 636.655 251.067 633.902 248.36C631.195 245.653 626.412 244.3 619.552 244.3H599.812C591.785 244.3 585.929 242.48 582.242 238.84C578.555 235.153 576.712 229.32 576.712 221.34C576.712 213.36 578.532 207.55 582.172 203.91C585.859 200.223 591.692 198.38 599.672 198.38H620.252C628.232 198.38 634.042 200.2 637.682 203.84C641.369 207.48 643.212 213.267 643.212 221.2C643.212 222.04 642.932 222.74 642.372 223.3C641.812 223.86 641.112 224.14 640.272 224.14C639.432 224.14 638.732 223.86 638.172 223.3C637.612 222.74 637.332 222.04 637.332 221.2C637.332 214.947 636.049 210.56 633.482 208.04C630.962 205.52 626.552 204.26 620.252 204.26H599.672C593.372 204.26 588.939 205.543 586.372 208.11C583.852 210.63 582.592 215.04 582.592 221.34C582.592 227.64 583.875 232.073 586.442 234.64C589.009 237.16 593.465 238.42 599.812 238.42H619.552C628.045 238.42 634.229 240.357 638.102 244.23C641.975 248.103 643.912 254.24 643.912 262.64C643.912 271.04 641.975 277.177 638.102 281.05C634.229 284.923 628.045 286.86 619.552 286.86H599.392ZM678.956 287C677.042 287 675.829 286.207 675.316 284.62L655.436 226.52C654.782 224.56 655.389 223.3 657.256 222.74C659.076 222.18 660.289 222.787 660.896 224.56L681.196 283.78H677.556L697.016 225.96C697.529 224.373 698.649 223.58 700.376 223.58C702.009 223.58 703.082 224.373 703.596 225.96L721.796 283.78H717.876L739.436 224.56C740.182 222.647 741.442 222.04 743.216 222.74C745.082 223.44 745.689 224.7 745.036 226.52L723.336 284.62C722.729 286.207 721.516 287 719.696 287C717.642 287 716.382 286.207 715.916 284.62L699.536 232.82H700.866L682.736 284.62C682.409 285.647 681.896 286.3 681.196 286.58C680.496 286.86 679.749 287 678.956 287ZM778.262 287C771.215 287 766.058 285.39 762.792 282.17C759.572 278.903 757.962 273.747 757.962 266.7C757.962 259.607 759.595 254.427 762.862 251.16C766.128 247.893 771.262 246.26 778.262 246.26H810.882C810.835 239.68 809.412 235.06 806.612 232.4C803.812 229.693 799.028 228.34 792.262 228.34H784.142C777.795 228.34 773.175 229.087 770.282 230.58C767.388 232.027 765.662 234.5 765.102 238C764.962 238.887 764.658 239.587 764.192 240.1C763.772 240.567 763.095 240.8 762.162 240.8C761.182 240.8 760.435 240.543 759.922 240.03C759.408 239.47 759.175 238.7 759.222 237.72C759.595 232.4 761.835 228.527 765.942 226.1C770.095 223.673 776.162 222.46 784.142 222.46H792.262C800.802 222.46 807.008 224.42 810.882 228.34C814.802 232.213 816.762 238.42 816.762 246.96V284.06C816.762 286.02 815.782 287 813.822 287C811.862 287 810.882 286.02 810.882 284.06V275.8C806.588 283.267 798.328 287 786.102 287H778.262ZM778.262 281.12H786.102C791.002 281.12 795.225 280.56 798.772 279.44C802.365 278.32 805.188 276.547 807.242 274.12C809.342 271.693 810.555 268.52 810.882 264.6V252.14H778.262C772.895 252.14 769.138 253.213 766.992 255.36C764.892 257.46 763.842 261.24 763.842 266.7C763.842 272.067 764.892 275.823 766.992 277.97C769.138 280.07 772.895 281.12 778.262 281.12ZM843.649 315C841.689 315 840.709 314.02 840.709 312.06V225.4C840.709 223.44 841.689 222.46 843.649 222.46C845.609 222.46 846.589 223.44 846.589 225.4V233.1C848.549 229.6 851.513 226.963 855.479 225.19C859.493 223.37 864.789 222.46 871.369 222.46H876.689C885.229 222.46 891.436 224.42 895.309 228.34C899.229 232.213 901.189 238.42 901.189 246.96V262.5C901.189 271.04 899.229 277.27 895.309 281.19C891.436 285.063 885.229 287 876.689 287H846.589V312.06C846.589 314.02 845.609 315 843.649 315ZM846.589 281.12H876.689C883.549 281.12 888.356 279.743 891.109 276.99C893.909 274.19 895.309 269.36 895.309 262.5V246.96C895.309 240.1 893.909 235.293 891.109 232.54C888.356 229.74 883.549 228.34 876.689 228.34H871.369C863.389 228.34 857.439 229.67 853.519 232.33C849.599 234.943 847.289 238.98 846.589 244.44V281.12Z" fill="white"/>
</g>
<defs>
<clipPath id="clip0_65_1772">
<rect width="1017" height="477" fill="white"/>
</clipPath>
</defs>
</svg>
