<svg width="321" height="268" viewBox="0 0 321 268" fill="none" xmlns="http://www.w3.org/2000/svg">
<g filter="url(#filter0_f_983_2658)">
<path d="M66.6341 50.0758C81.1762 51.935 103.078 70.2287 86.2471 90.1965C68.6371 111.089 36.9071 97.2172 35.3172 78.6529C33.7274 60.0886 52.0919 48.2166 66.6341 50.0758Z" fill="url(#paint0_linear_983_2658)"/>
<path d="M63.9924 91.5488C48.3519 84.1137 45.5356 69.0355 41.036 73.2108C36.8896 78.6436 42.8575 89.461 50.6378 93.1673C63.2138 99.158 68.1837 93.5413 63.9924 91.5488Z" fill="#F40080"/>
<g filter="url(#filter1_i_983_2658)">
<path d="M344.744 220.112C366.855 168.696 297.666 27.3571 223.42 41.9035C178.455 50.7131 89.9541 69.2154 113.739 163.917C137.525 258.619 310.985 298.61 344.744 220.112Z" fill="url(#paint1_linear_983_2658)"/>
</g>
<path d="M160.284 185.185C180.482 222.576 211.799 235.822 204.682 239.824C199.364 242.815 153.01 216.526 135.96 190.553C119.1 164.868 139.86 147.377 160.284 185.185Z" fill="#F40080"/>
<path d="M136.365 152.262C135.845 161.24 123.246 155.684 123.126 147.361C122.905 132.043 137.2 137.823 136.365 152.262Z" fill="#F40080"/>
<g filter="url(#filter2_i_983_2658)">
<path d="M97.8574 332.517C75.3502 316.41 53.2286 267.638 96.0899 251.28C140.936 234.164 182.585 284.838 171.09 315.651C159.596 346.464 120.365 348.624 97.8574 332.517Z" fill="url(#paint2_linear_983_2658)"/>
</g>
<path d="M92.4912 292.723C92.8307 313.573 111.329 325.145 105.375 326.117C100.311 328.026 81.4028 303.261 80.2007 291.113C78.6742 275.688 92.2305 276.706 92.4912 292.723Z" fill="#F40080"/>
<path d="M92.9991 270.687C94.1862 265.261 87.236 261.193 83.5062 270.178C80.8616 276.549 89.8637 280.094 92.9991 270.687Z" fill="#F40080"/>
</g>
<defs>
<filter id="filter0_f_983_2658" x="0.220673" y="5.85904" width="383.707" height="371.554" filterUnits="userSpaceOnUse" color-interpolation-filters="sRGB">
<feFlood flood-opacity="0" result="BackgroundImageFix"/>
<feBlend mode="normal" in="SourceGraphic" in2="BackgroundImageFix" result="shape"/>
<feGaussianBlur stdDeviation="17.5" result="effect1_foregroundBlur_983_2658"/>
</filter>
<filter id="filter1_i_983_2658" x="109.751" y="40.859" width="239.177" height="220.954" filterUnits="userSpaceOnUse" color-interpolation-filters="sRGB">
<feFlood flood-opacity="0" result="BackgroundImageFix"/>
<feBlend mode="normal" in="SourceGraphic" in2="BackgroundImageFix" result="shape"/>
<feColorMatrix in="SourceAlpha" type="matrix" values="0 0 0 0 0 0 0 0 0 0 0 0 0 0 0 0 0 0 127 0" result="hardAlpha"/>
<feOffset/>
<feGaussianBlur stdDeviation="15.8717"/>
<feComposite in2="hardAlpha" operator="arithmetic" k2="-1" k3="1"/>
<feColorMatrix type="matrix" values="0 0 0 0 0.956863 0 0 0 0 0 0 0 0 0 0.501961 0 0 0 0.9 0"/>
<feBlend mode="normal" in2="shape" result="effect1_innerShadow_983_2658"/>
</filter>
<filter id="filter2_i_983_2658" x="71.6856" y="247.837" width="101.338" height="94.5768" filterUnits="userSpaceOnUse" color-interpolation-filters="sRGB">
<feFlood flood-opacity="0" result="BackgroundImageFix"/>
<feBlend mode="normal" in="SourceGraphic" in2="BackgroundImageFix" result="shape"/>
<feColorMatrix in="SourceAlpha" type="matrix" values="0 0 0 0 0 0 0 0 0 0 0 0 0 0 0 0 0 0 127 0" result="hardAlpha"/>
<feOffset/>
<feGaussianBlur stdDeviation="10.6694"/>
<feComposite in2="hardAlpha" operator="arithmetic" k2="-1" k3="1"/>
<feColorMatrix type="matrix" values="0 0 0 0 0.956863 0 0 0 0 0 0 0 0 0 0.501961 0 0 0 1 0"/>
<feBlend mode="normal" in2="shape" result="effect1_innerShadow_983_2658"/>
</filter>
<linearGradient id="paint0_linear_983_2658" x1="48.5056" y1="96.7054" x2="77.4107" y2="53.7255" gradientUnits="userSpaceOnUse">
<stop stop-color="#200011"/>
<stop offset="1" stop-color="#8F004B"/>
</linearGradient>
<linearGradient id="paint1_linear_983_2658" x1="162.541" y1="198.332" x2="256.335" y2="27.3064" gradientUnits="userSpaceOnUse">
<stop stop-color="#200011"/>
<stop offset="1" stop-color="#8F004B"/>
</linearGradient>
<linearGradient id="paint2_linear_983_2658" x1="106.263" y1="273.064" x2="172.792" y2="315.502" gradientUnits="userSpaceOnUse">
<stop stop-color="#200011"/>
<stop offset="1" stop-color="#8F004B"/>
</linearGradient>
</defs>
</svg>
