<svg width="300" height="300" viewBox="0 0 300 300" fill="none" xmlns="http://www.w3.org/2000/svg">
<path fill-rule="evenodd" clip-rule="evenodd" d="M208.082 122.051L269.744 122.051C269.744 122.051 270.013 139.711 266.754 150.325C263.09 162.258 251.017 178.147 251.017 178.147V137.317H223.348V200.996L208.082 209.316L208.082 122.051Z" fill="#FF00A4"/>
<path d="M219.57 157.918H253.74" stroke="#FF00A4" stroke-width="10"/>
<path fill-rule="evenodd" clip-rule="evenodd" d="M90.4585 98.625H265.73C269.946 98.625 273.363 102.042 273.363 106.258C273.363 110.473 269.946 113.891 265.73 113.891H90.5712C84.4106 113.987 75.3148 115.394 68.0754 118.992C60.9868 122.516 56.9363 127.35 57.0129 134.398C57.1051 142.881 61.0759 149.775 66.5758 155.196C70.8045 159.364 75.2295 162.609 78.9687 164.58C81.0259 165.665 82.8002 167.313 83.6493 169.478C85.9273 175.287 80.9316 181.252 75.1351 178.943C66.7393 175.6 60.8889 171.026 55.8591 166.068C48.3837 158.699 41.8961 148.178 41.7482 134.563C41.5846 119.513 51.1951 110.336 61.2803 105.322C71.194 100.395 82.7533 98.7366 90.4032 98.6258L90.4585 98.625Z" fill="#FF00A4"/>
<path fill-rule="evenodd" clip-rule="evenodd" d="M92.8874 160.886C83.8927 140.686 82.3984 119.6 83.8179 106.062L99.0003 107.654C97.8171 118.938 99.0844 137.274 106.833 154.676C114.478 171.845 128.35 188 152.64 195.987V210.489C115.141 200.592 101.985 181.317 92.8874 160.886Z" fill="#FF00A4"/>
<path fill-rule="evenodd" clip-rule="evenodd" d="M109.176 122.699H196.018V211.825H160.162V196.56H180.752V137.965H117.227L109.176 122.699Z" fill="#FF00A4"/>
<path fill-rule="evenodd" clip-rule="evenodd" d="M125.391 162.895H185.715V178.16H145.73C141.455 178.16 137.383 176.336 134.537 173.146L125.391 162.895Z" fill="#FF00A4"/>
<path fill-rule="evenodd" clip-rule="evenodd" d="M158.563 244.636C130.1 239.082 107.162 221.214 93.4877 205.123C91.5978 202.899 92.0437 199.579 94.3576 197.8C96.6714 196.021 99.9779 196.461 101.878 198.676C114.453 213.329 135.288 229.327 160.587 234.263C186.875 239.393 218.959 232.772 252.849 198.046C254.888 195.958 258.23 195.818 260.372 197.8C262.514 199.782 262.647 203.133 260.611 205.224C224.531 242.288 188.907 250.557 158.563 244.636Z" fill="#FF00A4"/>
</svg>
